TITLE ""
FILE "LR_black_phrase_B09.mp3" MP3
  TRACK 01 AUDIO
    TITLE "LR_black_phrase_B09_001"
    INDEX 01 00:00:00
  TRACK 02 AUDIO
    TITLE "LR_black_phrase_B09_002"
    INDEX 01 00:00:14
  TRACK 03 AUDIO
    TITLE "LR_black_phrase_B09_003"
    INDEX 01 00:01:22
  TRACK 04 AUDIO
    TITLE "LR_black_phrase_B09_004"
    INDEX 01 00:01:63
  TRACK 05 AUDIO
    TITLE "LR_black_phrase_B09_005"
    INDEX 01 00:02:68
  TRACK 06 AUDIO
    TITLE "LR_black_phrase_B09_006"
    INDEX 01 00:03:67
  TRACK 07 AUDIO
    TITLE "LR_black_phrase_B09_007"
    INDEX 01 00:05:55
  TRACK 08 AUDIO
    TITLE "LR_black_phrase_B09_008"
    INDEX 01 00:06:19
  TRACK 09 AUDIO
    TITLE "LR_black_phrase_B09_009"
    INDEX 01 00:08:41
  TRACK 10 AUDIO
    TITLE "LR_black_phrase_B09_010"
    INDEX 01 00:08:74
  TRACK 11 AUDIO
    TITLE "LR_black_phrase_B09_011"
    INDEX 01 00:11:20
  TRACK 12 AUDIO
    TITLE "LR_black_phrase_B09_012"
    INDEX 01 00:12:27
  TRACK 13 AUDIO
    TITLE "LR_black_phrase_B09_013"
    INDEX 01 00:13:44
  TRACK 14 AUDIO
    TITLE "LR_black_phrase_B09_014"
    INDEX 01 00:14:08
  TRACK 15 AUDIO
    TITLE "LR_black_phrase_B09_015"
    INDEX 01 00:16:68
  TRACK 16 AUDIO
    TITLE "LR_black_phrase_B09_016"
    INDEX 01 00:17:70
  TRACK 17 AUDIO
    TITLE "LR_black_phrase_B09_017"
    INDEX 01 00:20:38
  TRACK 18 AUDIO
    TITLE "LR_black_phrase_B09_018"
    INDEX 01 00:21:03
  TRACK 19 AUDIO
    TITLE "LR_black_phrase_B09_019"
    INDEX 01 00:23:49
  TRACK 20 AUDIO
    TITLE "LR_black_phrase_B09_020"
    INDEX 01 00:24:03
  TRACK 21 AUDIO
    TITLE "LR_black_phrase_B09_021"
    INDEX 01 00:26:47
  TRACK 22 AUDIO
    TITLE "LR_black_phrase_B09_022"
    INDEX 01 00:27:52
  TRACK 23 AUDIO
    TITLE "LR_black_phrase_B09_023"
    INDEX 01 00:28:58
  TRACK 24 AUDIO
    TITLE "LR_black_phrase_B09_024"
    INDEX 01 00:29:20
  TRACK 25 AUDIO
    TITLE "LR_black_phrase_B09_025"
    INDEX 01 00:32:38
  TRACK 26 AUDIO
    TITLE "LR_black_phrase_B09_026"
    INDEX 01 00:33:37
  TRACK 27 AUDIO
    TITLE "LR_black_phrase_B09_027"
    INDEX 01 00:35:11
  TRACK 28 AUDIO
    TITLE "LR_black_phrase_B09_028"
    INDEX 01 00:35:50
  TRACK 29 AUDIO
    TITLE "LR_black_phrase_B09_029"
    INDEX 01 00:37:29
  TRACK 30 AUDIO
    TITLE "LR_black_phrase_B09_030"
    INDEX 01 00:37:60
  TRACK 31 AUDIO
    TITLE "LR_black_phrase_B09_031"
    INDEX 01 00:39:40
  TRACK 32 AUDIO
    TITLE "LR_black_phrase_B09_032"
    INDEX 01 00:40:37
  TRACK 33 AUDIO
    TITLE "LR_black_phrase_B09_033"
    INDEX 01 00:41:54
  TRACK 34 AUDIO
    TITLE "LR_black_phrase_B09_034"
    INDEX 01 00:42:15
  TRACK 35 AUDIO
    TITLE "LR_black_phrase_B09_035"
    INDEX 01 00:44:70
  TRACK 36 AUDIO
    TITLE "LR_black_phrase_B09_036"
    INDEX 01 00:45:70
  TRACK 37 AUDIO
    TITLE "LR_black_phrase_B09_037"
    INDEX 01 00:47:61
  TRACK 38 AUDIO
    TITLE "LR_black_phrase_B09_038"
    INDEX 01 00:48:23
  TRACK 39 AUDIO
    TITLE "LR_black_phrase_B09_039"
    INDEX 01 00:49:71
  TRACK 40 AUDIO
    TITLE "LR_black_phrase_B09_040"
    INDEX 01 00:50:22
  TRACK 41 AUDIO
    TITLE "LR_black_phrase_B09_041"
    INDEX 01 00:51:72
  TRACK 42 AUDIO
    TITLE "LR_black_phrase_B09_042"
    INDEX 01 00:52:74
  TRACK 43 AUDIO
    TITLE "LR_black_phrase_B09_043"
    INDEX 01 00:54:16
  TRACK 44 AUDIO
    TITLE "LR_black_phrase_B09_044"
    INDEX 01 00:54:49
  TRACK 45 AUDIO
    TITLE "LR_black_phrase_B09_045"
    INDEX 01 00:55:52
  TRACK 46 AUDIO
    TITLE "LR_black_phrase_B09_046"
    INDEX 01 00:56:52
  TRACK 47 AUDIO
    TITLE "LR_black_phrase_B09_047"
    INDEX 01 00:58:45
  TRACK 48 AUDIO
    TITLE "LR_black_phrase_B09_048"
    INDEX 01 00:59:05
  TRACK 49 AUDIO
    TITLE "LR_black_phrase_B09_049"
    INDEX 01 01:00:69
  TRACK 50 AUDIO
    TITLE "LR_black_phrase_B09_050"
    INDEX 01 01:01:14
  TRACK 51 AUDIO
    TITLE "LR_black_phrase_B09_051"
    INDEX 01 01:03:05
  TRACK 52 AUDIO
    TITLE "LR_black_phrase_B09_052"
    INDEX 01 01:04:01
  TRACK 53 AUDIO
    TITLE "LR_black_phrase_B09_053"
    INDEX 01 01:05:27
  TRACK 54 AUDIO
    TITLE "LR_black_phrase_B09_054"
    INDEX 01 01:05:63
  TRACK 55 AUDIO
    TITLE "LR_black_phrase_B09_055"
    INDEX 01 01:08:24
  TRACK 56 AUDIO
    TITLE "LR_black_phrase_B09_056"
    INDEX 01 01:09:19
  TRACK 57 AUDIO
    TITLE "LR_black_phrase_B09_057"
    INDEX 01 01:10:66
  TRACK 58 AUDIO
    TITLE "LR_black_phrase_B09_058"
    INDEX 01 01:11:26
  TRACK 59 AUDIO
    TITLE "LR_black_phrase_B09_059"
    INDEX 01 01:13:17
  TRACK 60 AUDIO
    TITLE "LR_black_phrase_B09_060"
    INDEX 01 01:13:33
  TRACK 61 AUDIO
    TITLE "LR_black_phrase_B09_061"
    INDEX 01 01:15:28
  TRACK 62 AUDIO
    TITLE "LR_black_phrase_B09_062"
    INDEX 01 01:16:29
  TRACK 63 AUDIO
    TITLE "LR_black_phrase_B09_063"
    INDEX 01 01:17:40
  TRACK 64 AUDIO
    TITLE "LR_black_phrase_B09_064"
    INDEX 01 01:18:06
  TRACK 65 AUDIO
    TITLE "LR_black_phrase_B09_065"
    INDEX 01 01:20:17
  TRACK 66 AUDIO
    TITLE "LR_black_phrase_B09_066"
    INDEX 01 01:21:15
  TRACK 67 AUDIO
    TITLE "LR_black_phrase_B09_067"
    INDEX 01 01:24:48
  TRACK 68 AUDIO
    TITLE "LR_black_phrase_B09_068"
    INDEX 01 01:25:12
  TRACK 69 AUDIO
    TITLE "LR_black_phrase_B09_069"
    INDEX 01 01:28:15
  TRACK 70 AUDIO
    TITLE "LR_black_phrase_B09_070"
    INDEX 01 01:28:44
  TRACK 71 AUDIO
    TITLE "LR_black_phrase_B09_071"
    INDEX 01 01:31:46
  TRACK 72 AUDIO
    TITLE "LR_black_phrase_B09_072"
    INDEX 01 01:32:50
  TRACK 73 AUDIO
    TITLE "LR_black_phrase_B09_073"
    INDEX 01 01:33:65
  TRACK 74 AUDIO
    TITLE "LR_black_phrase_B09_074"
    INDEX 01 01:34:29
  TRACK 75 AUDIO
    TITLE "LR_black_phrase_B09_075"
    INDEX 01 01:36:73
  TRACK 76 AUDIO
    TITLE "LR_black_phrase_B09_076"
    INDEX 01 01:37:72
  TRACK 77 AUDIO
    TITLE "LR_black_phrase_B09_077"
    INDEX 01 01:40:02
  TRACK 78 AUDIO
    TITLE "LR_black_phrase_B09_078"
    INDEX 01 01:40:41
  TRACK 79 AUDIO
    TITLE "LR_black_phrase_B09_079"
    INDEX 01 01:43:04
  TRACK 80 AUDIO
    TITLE "LR_black_phrase_B09_080"
    INDEX 01 01:43:32
  TRACK 81 AUDIO
    TITLE "LR_black_phrase_B09_081"
    INDEX 01 01:45:68
  TRACK 82 AUDIO
    TITLE "LR_black_phrase_B09_082"
    INDEX 01 01:46:71
  TRACK 83 AUDIO
    TITLE "LR_black_phrase_B09_083"
    INDEX 01 01:48:19
  TRACK 84 AUDIO
    TITLE "LR_black_phrase_B09_084"
    INDEX 01 01:48:60
  TRACK 85 AUDIO
    TITLE "LR_black_phrase_B09_085"
    INDEX 01 01:51:02
  TRACK 86 AUDIO
    TITLE "LR_black_phrase_B09_086"
    INDEX 01 01:52:01
  TRACK 87 AUDIO
    TITLE "LR_black_phrase_B09_087"
    INDEX 01 01:54:69
  TRACK 88 AUDIO
    TITLE "LR_black_phrase_B09_088"
    INDEX 01 01:55:35
  TRACK 89 AUDIO
    TITLE "LR_black_phrase_B09_089"
    INDEX 01 01:58:22
  TRACK 90 AUDIO
    TITLE "LR_black_phrase_B09_090"
    INDEX 01 01:58:51
  TRACK 91 AUDIO
    TITLE "LR_black_phrase_B09_091"
    INDEX 01 02:01:40
  TRACK 92 AUDIO
    TITLE "LR_black_phrase_B09_092"
    INDEX 01 02:02:39
  TRACK 93 AUDIO
    TITLE "LR_black_phrase_B09_093"
    INDEX 01 02:03:46
  TRACK 94 AUDIO
    TITLE "LR_black_phrase_B09_094"
    INDEX 01 02:04:07
  TRACK 95 AUDIO
    TITLE "LR_black_phrase_B09_095"
    INDEX 01 02:05:35
  TRACK 96 AUDIO
    TITLE "LR_black_phrase_B09_096"
    INDEX 01 02:06:35
  TRACK 97 AUDIO
    TITLE "LR_black_phrase_B09_097"
    INDEX 01 02:08:61
  TRACK 98 AUDIO
    TITLE "LR_black_phrase_B09_098"
    INDEX 01 02:09:23
  TRACK 99 AUDIO
    TITLE "LR_black_phrase_B09_099"
    INDEX 01 02:11:42
  TRACK 100 AUDIO
    TITLE "LR_black_phrase_B09_100"
    INDEX 01 02:11:65
  TRACK 101 AUDIO
    TITLE "LR_black_phrase_B09_101"
    INDEX 01 02:14:11
  TRACK 102 AUDIO
    TITLE "LR_black_phrase_B09_102"
    INDEX 01 02:15:04
  TRACK 103 AUDIO
    TITLE "LR_black_phrase_B09_103"
    INDEX 01 02:16:29
  TRACK 104 AUDIO
    TITLE "LR_black_phrase_B09_104"
    INDEX 01 02:16:67
  TRACK 105 AUDIO
    TITLE "LR_black_phrase_B09_105"
    INDEX 01 02:18:38
  TRACK 106 AUDIO
    TITLE "LR_black_phrase_B09_106"
    INDEX 01 02:19:40
  TRACK 107 AUDIO
    TITLE "LR_black_phrase_B09_107"
    INDEX 01 02:21:52
  TRACK 108 AUDIO
    TITLE "LR_black_phrase_B09_108"
    INDEX 01 02:22:08
  TRACK 109 AUDIO
    TITLE "LR_black_phrase_B09_109"
    INDEX 01 02:24:23
  TRACK 110 AUDIO
    TITLE "LR_black_phrase_B09_110"
    INDEX 01 02:24:48
  TRACK 111 AUDIO
    TITLE "LR_black_phrase_B09_111"
    INDEX 01 02:26:61
  TRACK 112 AUDIO
    TITLE "LR_black_phrase_B09_112"
    INDEX 01 02:27:61
  TRACK 113 AUDIO
    TITLE "LR_black_phrase_B09_113"
    INDEX 01 02:29:18
  TRACK 114 AUDIO
    TITLE "LR_black_phrase_B09_114"
    INDEX 01 02:29:56
  TRACK 115 AUDIO
    TITLE "LR_black_phrase_B09_115"
    INDEX 01 02:32:34
  TRACK 116 AUDIO
    TITLE "LR_black_phrase_B09_116"
    INDEX 01 02:33:36
  TRACK 117 AUDIO
    TITLE "LR_black_phrase_B09_117"
    INDEX 01 02:36:32
  TRACK 118 AUDIO
    TITLE "LR_black_phrase_B09_118"
    INDEX 01 02:36:67
  TRACK 119 AUDIO
    TITLE "LR_black_phrase_B09_119"
    INDEX 01 02:39:38
  TRACK 120 AUDIO
    TITLE "LR_black_phrase_B09_120"
    INDEX 01 02:39:58
  TRACK 121 AUDIO
    TITLE "LR_black_phrase_B09_121"
    INDEX 01 02:42:27
  TRACK 122 AUDIO
    TITLE "LR_black_phrase_B09_122"
    INDEX 01 02:43:26
  TRACK 123 AUDIO
    TITLE "LR_black_phrase_B09_123"
    INDEX 01 02:44:37
  TRACK 124 AUDIO
    TITLE "LR_black_phrase_B09_124"
    INDEX 01 02:45:02
  TRACK 125 AUDIO
    TITLE "LR_black_phrase_B09_125"
    INDEX 01 02:47:44
  TRACK 126 AUDIO
    TITLE "LR_black_phrase_B09_126"
    INDEX 01 02:48:45
  TRACK 127 AUDIO
    TITLE "LR_black_phrase_B09_127"
    INDEX 01 02:50:07
  TRACK 128 AUDIO
    TITLE "LR_black_phrase_B09_128"
    INDEX 01 02:50:46
  TRACK 129 AUDIO
    TITLE "LR_black_phrase_B09_129"
    INDEX 01 02:52:39
  TRACK 130 AUDIO
    TITLE "LR_black_phrase_B09_130"
    INDEX 01 02:52:70
  TRACK 131 AUDIO
    TITLE "LR_black_phrase_B09_131"
    INDEX 01 02:54:65
  TRACK 132 AUDIO
    TITLE "LR_black_phrase_B09_132"
    INDEX 01 02:55:71
  TRACK 133 AUDIO
    TITLE "LR_black_phrase_B09_133"
    INDEX 01 02:57:07
  TRACK 134 AUDIO
    TITLE "LR_black_phrase_B09_134"
    INDEX 01 02:57:48
  TRACK 135 AUDIO
    TITLE "LR_black_phrase_B09_135"
    INDEX 01 02:59:64
  TRACK 136 AUDIO
    TITLE "LR_black_phrase_B09_136"
    INDEX 01 03:00:62
  TRACK 137 AUDIO
    TITLE "LR_black_phrase_B09_137"
    INDEX 01 03:04:24
  TRACK 138 AUDIO
    TITLE "LR_black_phrase_B09_138"
    INDEX 01 03:04:64
  TRACK 139 AUDIO
    TITLE "LR_black_phrase_B09_139"
    INDEX 01 03:08:20
  TRACK 140 AUDIO
    TITLE "LR_black_phrase_B09_140"
    INDEX 01 03:08:50
  TRACK 141 AUDIO
    TITLE "LR_black_phrase_B09_141"
    INDEX 01 03:12:04
  TRACK 142 AUDIO
    TITLE "LR_black_phrase_B09_142"
    INDEX 01 03:13:10
  TRACK 143 AUDIO
    TITLE "LR_black_phrase_B09_143"
    INDEX 01 03:14:17
  TRACK 144 AUDIO
    TITLE "LR_black_phrase_B09_144"
    INDEX 01 03:14:54
  TRACK 145 AUDIO
    TITLE "LR_black_phrase_B09_145"
    INDEX 01 03:17:13
  TRACK 146 AUDIO
    TITLE "LR_black_phrase_B09_146"
    INDEX 01 03:18:13
  TRACK 147 AUDIO
    TITLE "LR_black_phrase_B09_147"
    INDEX 01 03:19:42
  TRACK 148 AUDIO
    TITLE "LR_black_phrase_B09_148"
    INDEX 01 03:20:04
  TRACK 149 AUDIO
    TITLE "LR_black_phrase_B09_149"
    INDEX 01 03:22:07
  TRACK 150 AUDIO
    TITLE "LR_black_phrase_B09_150"
    INDEX 01 03:22:34
  TRACK 151 AUDIO
    TITLE "LR_black_phrase_B09_151"
    INDEX 01 03:24:37
  TRACK 152 AUDIO
    TITLE "LR_black_phrase_B09_152"
    INDEX 01 03:25:34
  TRACK 153 AUDIO
    TITLE "LR_black_phrase_B09_153"
    INDEX 01 03:26:48
  TRACK 154 AUDIO
    TITLE "LR_black_phrase_B09_154"
    INDEX 01 03:27:18
  TRACK 155 AUDIO
    TITLE "LR_black_phrase_B09_155"
    INDEX 01 03:29:66
  TRACK 156 AUDIO
    TITLE "LR_black_phrase_B09_156"
    INDEX 01 03:30:65
  TRACK 157 AUDIO
    TITLE "LR_black_phrase_B09_157"
    INDEX 01 03:32:68
  TRACK 158 AUDIO
    TITLE "LR_black_phrase_B09_158"
    INDEX 01 03:33:30
  TRACK 159 AUDIO
    TITLE "LR_black_phrase_B09_159"
    INDEX 01 03:35:52
  TRACK 160 AUDIO
    TITLE "LR_black_phrase_B09_160"
    INDEX 01 03:36:01
  TRACK 161 AUDIO
    TITLE "LR_black_phrase_B09_161"
    INDEX 01 03:38:25
  TRACK 162 AUDIO
    TITLE "LR_black_phrase_B09_162"
    INDEX 01 03:39:19
  TRACK 163 AUDIO
    TITLE "LR_black_phrase_B09_163"
    INDEX 01 03:40:38
  TRACK 164 AUDIO
    TITLE "LR_black_phrase_B09_164"
    INDEX 01 03:40:75
  TRACK 165 AUDIO
    TITLE "LR_black_phrase_B09_165"
    INDEX 01 03:42:33
  TRACK 166 AUDIO
    TITLE "LR_black_phrase_B09_166"
    INDEX 01 03:43:32
  TRACK 167 AUDIO
    TITLE "LR_black_phrase_B09_167"
    INDEX 01 03:45:22
  TRACK 168 AUDIO
    TITLE "LR_black_phrase_B09_168"
    INDEX 01 03:45:55
  TRACK 169 AUDIO
    TITLE "LR_black_phrase_B09_169"
    INDEX 01 03:47:46
  TRACK 170 AUDIO
    TITLE "LR_black_phrase_B09_170"
    INDEX 01 03:47:71
  TRACK 171 AUDIO
    TITLE "LR_black_phrase_B09_171"
    INDEX 01 03:49:62
  TRACK 172 AUDIO
    TITLE "LR_black_phrase_B09_172"
    INDEX 01 03:50:64
  TRACK 173 AUDIO
    TITLE "LR_black_phrase_B09_173"
    INDEX 01 03:51:75
  TRACK 174 AUDIO
    TITLE "LR_black_phrase_B09_174"
    INDEX 01 03:52:31
  TRACK 175 AUDIO
    TITLE "LR_black_phrase_B09_175"
    INDEX 01 03:55:24
  TRACK 176 AUDIO
    TITLE "LR_black_phrase_B09_176"
    INDEX 01 03:56:23
  TRACK 177 AUDIO
    TITLE "LR_black_phrase_B09_177"
    INDEX 01 03:58:69
  TRACK 178 AUDIO
    TITLE "LR_black_phrase_B09_178"
    INDEX 01 03:59:31
  TRACK 179 AUDIO
    TITLE "LR_black_phrase_B09_179"
    INDEX 01 04:01:60
  TRACK 180 AUDIO
    TITLE "LR_black_phrase_B09_180"
    INDEX 01 04:02:16
  TRACK 181 AUDIO
    TITLE "LR_black_phrase_B09_181"
    INDEX 01 04:04:42
  TRACK 182 AUDIO
    TITLE "LR_black_phrase_B09_182"
    INDEX 01 04:05:48
  TRACK 183 AUDIO
    TITLE "LR_black_phrase_B09_183"
    INDEX 01 04:06:57
  TRACK 184 AUDIO
    TITLE "LR_black_phrase_B09_184"
    INDEX 01 04:07:23
  TRACK 185 AUDIO
    TITLE "LR_black_phrase_B09_185"
    INDEX 01 04:08:32
  TRACK 186 AUDIO
    TITLE "LR_black_phrase_B09_186"
    INDEX 01 04:09:24
  TRACK 187 AUDIO
    TITLE "LR_black_phrase_B09_187"
    INDEX 01 04:11:48
  TRACK 188 AUDIO
    TITLE "LR_black_phrase_B09_188"
    INDEX 01 04:12:14
  TRACK 189 AUDIO
    TITLE "LR_black_phrase_B09_189"
    INDEX 01 04:14:15
  TRACK 190 AUDIO
    TITLE "LR_black_phrase_B09_190"
    INDEX 01 04:14:49
  TRACK 191 AUDIO
    TITLE "LR_black_phrase_B09_191"
    INDEX 01 04:16:51
  TRACK 192 AUDIO
    TITLE "LR_black_phrase_B09_192"
    INDEX 01 04:17:57
  TRACK 193 AUDIO
    TITLE "LR_black_phrase_B09_193"
    INDEX 01 04:19:15
  TRACK 194 AUDIO
    TITLE "LR_black_phrase_B09_194"
    INDEX 01 04:19:56
  TRACK 195 AUDIO
    TITLE "LR_black_phrase_B09_195"
    INDEX 01 04:21:10
  TRACK 196 AUDIO
    TITLE "LR_black_phrase_B09_196"
    INDEX 01 04:22:11
  TRACK 197 AUDIO
    TITLE "LR_black_phrase_B09_197"
    INDEX 01 04:23:75
  TRACK 198 AUDIO
    TITLE "LR_black_phrase_B09_198"
    INDEX 01 04:24:37
  TRACK 199 AUDIO
    TITLE "LR_black_phrase_B09_199"
    INDEX 01 04:26:44
  TRACK 200 AUDIO
    TITLE "LR_black_phrase_B09_200"
    INDEX 01 04:26:71
  TRACK 201 AUDIO
    TITLE "LR_black_phrase_B09_201"
    INDEX 01 04:29:03
  TRACK 202 AUDIO
    TITLE "LR_black_phrase_B09_202"
    INDEX 01 04:30:06
  TRACK 203 AUDIO
    TITLE "LR_black_phrase_B09_203"
    INDEX 01 04:31:45
  TRACK 204 AUDIO
    TITLE "LR_black_phrase_B09_204"
    INDEX 01 04:32:09
  TRACK 205 AUDIO
    TITLE "LR_black_phrase_B09_205"
    INDEX 01 04:35:06
  TRACK 206 AUDIO
    TITLE "LR_black_phrase_B09_206"
    INDEX 01 04:36:05
  TRACK 207 AUDIO
    TITLE "LR_black_phrase_B09_207"
    INDEX 01 04:38:28
  TRACK 208 AUDIO
    TITLE "LR_black_phrase_B09_208"
    INDEX 01 04:38:67
  TRACK 209 AUDIO
    TITLE "LR_black_phrase_B09_209"
    INDEX 01 04:41:16
  TRACK 210 AUDIO
    TITLE "LR_black_phrase_B09_210"
    INDEX 01 04:41:46
  TRACK 211 AUDIO
    TITLE "LR_black_phrase_B09_211"
    INDEX 01 04:43:68
  TRACK 212 AUDIO
    TITLE "LR_black_phrase_B09_212"
    INDEX 01 04:44:67
  TRACK 213 AUDIO
    TITLE "LR_black_phrase_B09_213"
    INDEX 01 04:46:15
  TRACK 214 AUDIO
    TITLE "LR_black_phrase_B09_214"
    INDEX 01 04:46:51
  TRACK 215 AUDIO
    TITLE "LR_black_phrase_B09_215"
    INDEX 01 04:48:55
  TRACK 216 AUDIO
    TITLE "LR_black_phrase_B09_216"
    INDEX 01 04:49:55
  TRACK 217 AUDIO
    TITLE "LR_black_phrase_B09_217"
    INDEX 01 04:52:14
  TRACK 218 AUDIO
    TITLE "LR_black_phrase_B09_218"
    INDEX 01 04:52:47
  TRACK 219 AUDIO
    TITLE "LR_black_phrase_B09_219"
    INDEX 01 04:55:16
  TRACK 220 AUDIO
    TITLE "LR_black_phrase_B09_220"
    INDEX 01 04:55:38
  TRACK 221 AUDIO
    TITLE "LR_black_phrase_B09_221"
    INDEX 01 04:58:07
  TRACK 222 AUDIO
    TITLE "LR_black_phrase_B09_222"
    INDEX 01 04:59:02
  TRACK 223 AUDIO
    TITLE "LR_black_phrase_B09_223"
    INDEX 01 04:59:73
  TRACK 224 AUDIO
    TITLE "LR_black_phrase_B09_224"
    INDEX 01 05:00:35
  TRACK 225 AUDIO
    TITLE "LR_black_phrase_B09_225"
    INDEX 01 05:02:38
  TRACK 226 AUDIO
    TITLE "LR_black_phrase_B09_226"
    INDEX 01 05:03:37
  TRACK 227 AUDIO
    TITLE "LR_black_phrase_B09_227"
    INDEX 01 05:06:02
  TRACK 228 AUDIO
    TITLE "LR_black_phrase_B09_228"
    INDEX 01 05:06:42
  TRACK 229 AUDIO
    TITLE "LR_black_phrase_B09_229"
    INDEX 01 05:09:10
  TRACK 230 AUDIO
    TITLE "LR_black_phrase_B09_230"
    INDEX 01 05:09:36
  TRACK 231 AUDIO
    TITLE "LR_black_phrase_B09_231"
    INDEX 01 05:12:05
  TRACK 232 AUDIO
    TITLE "LR_black_phrase_B09_232"
    INDEX 01 05:13:02
  TRACK 233 AUDIO
    TITLE "LR_black_phrase_B09_233"
    INDEX 01 05:14:27
  TRACK 234 AUDIO
    TITLE "LR_black_phrase_B09_234"
    INDEX 01 05:14:66
  TRACK 235 AUDIO
    TITLE "LR_black_phrase_B09_235"
    INDEX 01 05:17:65
  TRACK 236 AUDIO
    TITLE "LR_black_phrase_B09_236"
    INDEX 01 05:18:66
  TRACK 237 AUDIO
    TITLE "LR_black_phrase_B09_237"
    INDEX 01 05:21:43
  TRACK 238 AUDIO
    TITLE "LR_black_phrase_B09_238"
    INDEX 01 05:22:03
  TRACK 239 AUDIO
    TITLE "LR_black_phrase_B09_239"
    INDEX 01 05:25:19
  TRACK 240 AUDIO
    TITLE "LR_black_phrase_B09_240"
    INDEX 01 05:25:41
  TRACK 241 AUDIO
    TITLE "LR_black_phrase_B09_241"
    INDEX 01 05:28:57
  TRACK 242 AUDIO
    TITLE "LR_black_phrase_B09_242"
    INDEX 01 05:29:56
  TRACK 243 AUDIO
    TITLE "LR_black_phrase_B09_243"
    INDEX 01 05:31:04
  TRACK 244 AUDIO
    TITLE "LR_black_phrase_B09_244"
    INDEX 01 05:31:38
  TRACK 245 AUDIO
    TITLE "LR_black_phrase_B09_245"
    INDEX 01 05:32:64
  TRACK 246 AUDIO
    TITLE "LR_black_phrase_B09_246"
    INDEX 01 05:33:64
  TRACK 247 AUDIO
    TITLE "LR_black_phrase_B09_247"
    INDEX 01 05:35:51
  TRACK 248 AUDIO
    TITLE "LR_black_phrase_B09_248"
    INDEX 01 05:36:09
  TRACK 249 AUDIO
    TITLE "LR_black_phrase_B09_249"
    INDEX 01 05:37:71
  TRACK 250 AUDIO
    TITLE "LR_black_phrase_B09_250"
    INDEX 01 05:38:20
  TRACK 251 AUDIO
    TITLE "LR_black_phrase_B09_251"
    INDEX 01 05:40:05
  TRACK 252 AUDIO
    TITLE "LR_black_phrase_B09_252"
    INDEX 01 05:41:09
  TRACK 253 AUDIO
    TITLE "LR_black_phrase_B09_253"
    INDEX 01 05:42:31
  TRACK 254 AUDIO
    TITLE "LR_black_phrase_B09_254"
    INDEX 01 05:42:69
  TRACK 255 AUDIO
    TITLE "LR_black_phrase_B09_255"
    INDEX 01 05:45:18
  TRACK 256 AUDIO
    TITLE "LR_black_phrase_B09_256"
    INDEX 01 05:46:19
  TRACK 257 AUDIO
    TITLE "LR_black_phrase_B09_257"
    INDEX 01 05:48:42
  TRACK 258 AUDIO
    TITLE "LR_black_phrase_B09_258"
    INDEX 01 05:49:04
  TRACK 259 AUDIO
    TITLE "LR_black_phrase_B09_259"
    INDEX 01 05:51:44
  TRACK 260 AUDIO
    TITLE "LR_black_phrase_B09_260"
    INDEX 01 05:52:01
  TRACK 261 AUDIO
    TITLE "LR_black_phrase_B09_261"
    INDEX 01 05:54:39
  TRACK 262 AUDIO
    TITLE "LR_black_phrase_B09_262"
    INDEX 01 05:55:44
  TRACK 263 AUDIO
    TITLE "LR_black_phrase_B09_263"
    INDEX 01 05:57:04
  TRACK 264 AUDIO
    TITLE "LR_black_phrase_B09_264"
    INDEX 01 05:57:43
  TRACK 265 AUDIO
    TITLE "LR_black_phrase_B09_265"
    INDEX 01 06:00:69
  TRACK 266 AUDIO
    TITLE "LR_black_phrase_B09_266"
    INDEX 01 06:01:70
  TRACK 267 AUDIO
    TITLE "LR_black_phrase_B09_267"
    INDEX 01 06:03:51
  TRACK 268 AUDIO
    TITLE "LR_black_phrase_B09_268"
    INDEX 01 06:04:15
  TRACK 269 AUDIO
    TITLE "LR_black_phrase_B09_269"
    INDEX 01 06:06:34
  TRACK 270 AUDIO
    TITLE "LR_black_phrase_B09_270"
    INDEX 01 06:06:65
  TRACK 271 AUDIO
    TITLE "LR_black_phrase_B09_271"
    INDEX 01 06:09:09
  TRACK 272 AUDIO
    TITLE "LR_black_phrase_B09_272"
    INDEX 01 06:10:12
  TRACK 273 AUDIO
    TITLE "LR_black_phrase_B09_273"
    INDEX 01 06:11:15
  TRACK 274 AUDIO
    TITLE "LR_black_phrase_B09_274"
    INDEX 01 06:11:47
  TRACK 275 AUDIO
    TITLE "LR_black_phrase_B09_275"
    INDEX 01 06:13:12
  TRACK 276 AUDIO
    TITLE "LR_black_phrase_B09_276"
    INDEX 01 06:14:08
  TRACK 277 AUDIO
    TITLE "LR_black_phrase_B09_277"
    INDEX 01 06:16:28
  TRACK 278 AUDIO
    TITLE "LR_black_phrase_B09_278"
    INDEX 01 06:16:64
  TRACK 279 AUDIO
    TITLE "LR_black_phrase_B09_279"
    INDEX 01 06:18:47
  TRACK 280 AUDIO
    TITLE "LR_black_phrase_B09_280"
    INDEX 01 06:18:66
  TRACK 281 AUDIO
    TITLE "LR_black_phrase_B09_281"
    INDEX 01 06:20:50
  TRACK 282 AUDIO
    TITLE "LR_black_phrase_B09_282"
    INDEX 01 06:21:45
  TRACK 283 AUDIO
    TITLE "LR_black_phrase_B09_283"
    INDEX 01 06:23:09
  TRACK 284 AUDIO
    TITLE "LR_black_phrase_B09_284"
    INDEX 01 06:23:44
  TRACK 285 AUDIO
    TITLE "LR_black_phrase_B09_285"
    INDEX 01 06:25:69
  TRACK 286 AUDIO
    TITLE "LR_black_phrase_B09_286"
    INDEX 01 06:26:70
  TRACK 287 AUDIO
    TITLE "LR_black_phrase_B09_287"
    INDEX 01 06:29:66
  TRACK 288 AUDIO
    TITLE "LR_black_phrase_B09_288"
    INDEX 01 06:30:25
  TRACK 289 AUDIO
    TITLE "LR_black_phrase_B09_289"
    INDEX 01 06:34:03
  TRACK 290 AUDIO
    TITLE "LR_black_phrase_B09_290"
    INDEX 01 06:34:24
  TRACK 291 AUDIO
    TITLE "LR_black_phrase_B09_291"
    INDEX 01 06:38:05
  TRACK 292 AUDIO
    TITLE "LR_black_phrase_B09_292"
    INDEX 01 06:39:02
  TRACK 293 AUDIO
    TITLE "LR_black_phrase_B09_293"
    INDEX 01 06:40:17
  TRACK 294 AUDIO
    TITLE "LR_black_phrase_B09_294"
    INDEX 01 06:40:48
  TRACK 295 AUDIO
    TITLE "LR_black_phrase_B09_295"
    INDEX 01 06:43:02
  TRACK 296 AUDIO
    TITLE "LR_black_phrase_B09_296"
    INDEX 01 06:44:01
  TRACK 297 AUDIO
    TITLE "LR_black_phrase_B09_297"
    INDEX 01 06:46:08
  TRACK 298 AUDIO
    TITLE "LR_black_phrase_B09_298"
    INDEX 01 06:46:41
  TRACK 299 AUDIO
    TITLE "LR_black_phrase_B09_299"
    INDEX 01 06:48:44
  TRACK 300 AUDIO
    TITLE "LR_black_phrase_B09_300"
    INDEX 01 06:48:70
  TRACK 301 AUDIO
    TITLE "LR_black_phrase_B09_301"
    INDEX 01 06:50:72
